<svg width="54" height="54" viewBox="0 0 54 54" fill="none" xmlns="http://www.w3.org/2000/svg">
<path d="M25.1226 3.37332C24.2194 3.74641 23.4119 4.55643 21.7944 6.17155C20.1769 7.79158 19.3669 8.59914 18.9963 9.49998C18.7495 10.0957 18.6225 10.7342 18.6225 11.379C18.6225 12.0238 18.7495 12.6623 18.9963 13.258C19.3669 14.1613 20.1745 14.9688 21.7944 16.5864C23.4094 18.204 24.2194 19.014 25.1226 19.3846C26.3249 19.8824 27.6756 19.8824 28.8779 19.3846C29.7811 19.014 30.5886 18.2064 32.2061 16.5864C33.8261 14.9688 34.6311 14.1613 35.0042 13.258C35.5019 12.0556 35.5019 10.7048 35.0042 9.50243C34.6311 8.59914 33.8261 7.79158 32.2061 6.17401C30.5886 4.55398 29.7811 3.74641 28.8779 3.37332C27.6756 2.87556 26.3249 2.87556 25.1226 3.37332ZM9.50009 18.9943C8.59931 19.3674 7.78934 20.175 6.17432 21.7926C4.55439 23.4126 3.74688 24.2202 3.3738 25.121C3.12702 25.7167 3 26.3552 3 27C3 27.6448 3.12702 28.2833 3.3738 28.879C3.74688 29.7823 4.55684 30.5898 6.17186 32.2074C7.7918 33.825 8.59931 34.6326 9.50009 35.0057C10.0958 35.2525 10.7342 35.3795 11.379 35.3795C12.0237 35.3795 12.6622 35.2525 13.2578 35.0057C14.1611 34.6326 14.9686 33.825 16.5861 32.2074C18.206 30.5898 19.011 29.7823 19.3841 28.879C19.8818 27.6766 19.8818 26.3258 19.3841 25.1235C19.011 24.2202 18.206 23.4102 16.5861 21.7926C14.9686 20.175 14.1611 19.3674 13.2578 18.9943C12.0555 18.4966 10.7024 18.4966 9.50009 18.9943ZM37.4144 21.7926C35.797 23.4126 34.9895 24.2202 34.6164 25.121C34.3696 25.7167 34.2426 26.3552 34.2426 27C34.2426 27.6448 34.3696 28.2833 34.6164 28.879C34.9895 29.7823 35.797 30.5898 37.4144 32.2074C39.0319 33.825 39.8419 34.6326 40.7427 35.0057C41.945 35.5034 43.2957 35.5034 44.498 35.0057C45.4012 34.6326 46.2112 33.825 47.8286 32.2074C49.4461 30.5898 50.2512 29.7823 50.6267 28.879C51.1244 27.6766 51.1244 26.3258 50.6267 25.1235C50.2512 24.2202 49.4461 23.4102 47.8286 21.7926C46.2087 20.175 45.4012 19.3674 44.5004 18.9943C43.9048 18.7475 43.2663 18.6205 42.6215 18.6205C41.9768 18.6205 41.3383 18.7475 40.7427 18.9943C39.8419 19.3674 39.0319 20.175 37.4144 21.7926ZM25.1226 34.6154C24.2194 34.9885 23.4119 35.7985 21.7944 37.4136C20.1769 39.0336 19.3669 39.8412 18.9963 40.7445C18.4986 41.9469 18.4986 43.2977 18.9963 44.5C19.3669 45.4033 20.1745 46.2109 21.7944 47.8285C23.4094 49.446 24.2194 50.256 25.1226 50.6267C26.3249 51.1244 27.6756 51.1244 28.8779 50.6267C29.7811 50.256 30.5886 49.4485 32.2061 47.8285C33.8261 46.2109 34.6311 45.4033 35.0042 44.5C35.5024 43.2973 35.5024 41.9472 35.0042 40.7445C34.6311 39.8412 33.8261 39.0312 32.2061 37.4161C30.5886 35.796 29.7811 34.9885 28.8779 34.6154C27.6756 34.1176 26.3249 34.1176 25.1226 34.6154Z" stroke="#124C88" stroke-width="5" stroke-linecap="round" stroke-linejoin="round"/>
</svg>
