<svg xmlns="http://www.w3.org/2000/svg" x="0px" y="0px"
width="24" height="24"
viewBox="0 0 24 24"
style=" fill:#888888;">
  <path d="M 5 3 C 3.895 3 3 3.895 3 5 L 3 19 C 3 20.105 3.895 21 5 21 L 19 21 C 20.105 21 21 20.105 21 19 L 21 5 C 21 3.895 20.105 3 19 3 L 5 3 z M 5 5 L 19 5 L 19 19 L 5 19 L 5 5 z M 8.4101562 7 L 7 8.4101562 L 10.589844 12 L 7 15.589844 L 8.4101562 17 L 12 13.410156 L 15.589844 17 L 17 15.589844 L 13.410156 12 L 17 8.4101562 L 15.589844 7 L 12 10.589844 L 8.4101562 7 z"></path>
</svg>