<svg width="48" height="48" viewBox="0 0 48 48" fill="none" xmlns="http://www.w3.org/2000/svg">
<path opacity="0.7" d="M16.625 37C15.9031 37 15.2849 36.7573 14.7704 36.272C14.2559 35.7867 13.9991 35.2039 14 34.5238V22.1429C14 21.4619 14.2573 20.8788 14.7718 20.3934C15.2863 19.9081 15.904 19.6658 16.625 19.6667H17.9375V17.1905C17.9375 15.4778 18.5776 14.0177 19.8577 12.8101C21.1378 11.6025 22.6853 10.9992 24.5 11C26.3156 11 27.8635 11.6038 29.1436 12.8113C30.4237 14.0189 31.0634 15.4786 31.0625 17.1905V19.6667H32.375C33.0969 19.6667 33.7151 19.9093 34.2296 20.3947C34.7441 20.88 35.0009 21.4627 35 22.1429V34.5238C35 35.2048 34.7427 35.7879 34.2282 36.2732C33.7137 36.7586 33.096 37.0008 32.375 37H16.625ZM16.625 34.5238H32.375V22.1429H16.625V34.5238ZM24.5 30.8095C25.2219 30.8095 25.8401 30.5669 26.3546 30.0815C26.8691 29.5962 27.1259 29.0135 27.125 28.3333C27.125 27.6524 26.8677 27.0692 26.3532 26.5839C25.8387 26.0986 25.221 25.8563 24.5 25.8571C23.7781 25.8571 23.1599 26.0998 22.6454 26.5851C22.1309 27.0705 21.8741 27.6532 21.875 28.3333C21.875 29.0143 22.1323 29.5974 22.6468 30.0828C23.1613 30.5681 23.779 30.8103 24.5 30.8095ZM20.5625 19.6667H28.4375V17.1905C28.4375 16.1587 28.0547 15.2817 27.2891 14.5595C26.5234 13.8373 25.5937 13.4762 24.5 13.4762C23.4062 13.4762 22.4766 13.8373 21.7109 14.5595C20.9453 15.2817 20.5625 16.1587 20.5625 17.1905V19.6667Z" fill="#93CEFF"/>
</svg>
