<svg width="48" height="48" viewBox="0 0 48 48" fill="none" xmlns="http://www.w3.org/2000/svg">
<path opacity="0.7" d="M24.5 10C26.2902 10 28.0071 10.7638 29.273 12.1235C30.5388 13.4831 31.25 15.3272 31.25 17.25C31.25 19.1728 30.5388 21.0169 29.273 22.3765C28.0071 23.7362 26.2902 24.5 24.5 24.5C22.7098 24.5 20.9929 23.7362 19.727 22.3765C18.4612 21.0169 17.75 19.1728 17.75 17.25C17.75 15.3272 18.4612 13.4831 19.727 12.1235C20.9929 10.7638 22.7098 10 24.5 10ZM24.5 13.625C23.6049 13.625 22.7465 14.0069 22.1135 14.6867C21.4806 15.3666 21.125 16.2886 21.125 17.25C21.125 18.2114 21.4806 19.1334 22.1135 19.8133C22.7465 20.4931 23.6049 20.875 24.5 20.875C25.3951 20.875 26.2535 20.4931 26.8865 19.8133C27.5194 19.1334 27.875 18.2114 27.875 17.25C27.875 16.2886 27.5194 15.3666 26.8865 14.6867C26.2535 14.0069 25.3951 13.625 24.5 13.625ZM24.5 26.3125C29.0056 26.3125 38 28.7231 38 33.5625V39H11V33.5625C11 28.7231 19.9944 26.3125 24.5 26.3125ZM24.5 29.7562C19.4881 29.7562 14.2063 32.4025 14.2063 33.5625V35.5563H34.7938V33.5625C34.7938 32.4025 29.5119 29.7562 24.5 29.7562Z" fill="#93CEFF"/>
</svg>
